<?xml version="1.0" encoding="UTF-8" standalone="no"?>
<!-- Created with Inkscape (http://www.inkscape.org/) -->

<svg
   xmlns:dc="http://purl.org/dc/elements/1.1/"
   xmlns:cc="http://creativecommons.org/ns#"
   xmlns:rdf="http://www.w3.org/1999/02/22-rdf-syntax-ns#"
   xmlns:svg="http://www.w3.org/2000/svg"
   xmlns="http://www.w3.org/2000/svg"
   xmlns:sodipodi="http://sodipodi.sourceforge.net/DTD/sodipodi-0.dtd"
   xmlns:inkscape="http://www.inkscape.org/namespaces/inkscape"
   width="210mm"
   height="297mm"
   viewBox="0 0 210 297"
   version="1.1"
   id="svg8"
   inkscape:version="0.92.5 (2060ec1f9f, 2020-04-08)"
   sodipodi:docname="bg4.svg">
  <defs
     id="defs2" />
  <sodipodi:namedview
     id="base"
     pagecolor="#ffffff"
     bordercolor="#666666"
     borderopacity="1.0"
     inkscape:pageopacity="0.0"
     inkscape:pageshadow="2"
     inkscape:zoom="0.49497474"
     inkscape:cx="392.7137"
     inkscape:cy="122.26275"
     inkscape:document-units="mm"
     inkscape:current-layer="g1037"
     showgrid="false"
     showguides="true"
     inkscape:guide-bbox="true"
     inkscape:window-width="1366"
     inkscape:window-height="715"
     inkscape:window-x="0"
     inkscape:window-y="0"
     inkscape:window-maximized="1" />
  <metadata
     id="metadata5">
    <rdf:RDF>
      <cc:Work
         rdf:about="">
        <dc:format>image/svg+xml</dc:format>
        <dc:type
           rdf:resource="http://purl.org/dc/dcmitype/StillImage" />
        <dc:title />
      </cc:Work>
    </rdf:RDF>
  </metadata>
  <g
     inkscape:label="Camada 1"
     inkscape:groupmode="layer"
     id="layer1">
    <g
       id="g1037"
       transform="matrix(-1,0,0,1,216.62915,0)">
      <path
         id="path5191-3"
         d="m 179.99215,86.391109 a 1.1168125,1.0873146 0 0 0 -1.11673,1.087271 1.1168125,1.0873146 0 0 0 1.11673,1.087273 1.1168125,1.0873146 0 0 0 1.11673,-1.087273 1.1168125,1.0873146 0 0 0 -1.11673,-1.087271 z m 36.54247,36.360571 a 1.1168125,1.0873146 0 0 0 -1.11673,1.08779 1.1168125,1.0873146 0 0 0 1.11673,1.08727 1.1168125,1.0873146 0 0 0 1.11724,-1.08727 1.1168125,1.0873146 0 0 0 -1.11724,-1.08779 z m -24.99899,0.0672 a 1.1168125,1.0873146 0 0 0 -1.11673,1.08727 1.1168125,1.0873146 0 0 0 1.11673,1.08728 1.1168125,1.0873146 0 0 0 1.11673,-1.08728 1.1168125,1.0873146 0 0 0 -1.11673,-1.08727 z m 25.04705,4.02508 a 1.1168125,1.0873146 0 0 0 -1.11673,1.08727 1.1168125,1.0873146 0 0 0 1.11673,1.08727 1.1168125,1.0873146 0 0 0 1.11724,-1.08727 1.1168125,1.0873146 0 0 0 -1.11724,-1.08727 z m -57.17842,4.02714 a 1.1168125,1.0873146 0 0 0 -1.11673,1.08727 1.1168125,1.0873146 0 0 0 1.11673,1.08728 1.1168125,1.0873146 0 0 0 1.11673,-1.08728 1.1168125,1.0873146 0 0 0 -1.11673,-1.08727 z m -32.14223,16.02383 a 1.1168125,1.0873146 0 0 0 -1.11672,1.08727 1.1168125,1.0873146 0 0 0 1.11672,1.08728 1.1168125,1.0873146 0 0 0 1.11673,-1.08728 1.1168125,1.0873146 0 0 0 -1.11673,-1.08727 z m 56.82548,7.02645 a 1.1168125,1.0873146 0 0 0 -1.11725,1.08778 1.1168125,1.0873146 0 0 0 1.11725,1.08728 1.1168125,1.0873146 0 0 0 1.11672,-1.08728 1.1168125,1.0873146 0 0 0 -1.11672,-1.08778 z m 20.08352,3.43751 a 1.1168125,1.0873146 0 0 0 -1.11672,1.08727 1.1168125,1.0873146 0 0 0 1.11672,1.08728 1.1168125,1.0873146 0 0 0 1.11673,-1.08728 1.1168125,1.0873146 0 0 0 -1.11673,-1.08727 z m -25.60773,2.15129 a 1.1168125,1.0873146 0 0 0 -1.11673,1.08727 1.1168125,1.0873146 0 0 0 1.11673,1.08728 1.1168125,1.0873146 0 0 0 1.11672,-1.08728 1.1168125,1.0873146 0 0 0 -1.11672,-1.08727 z m -20.1781,19.49235 a 1.1168125,1.0873146 0 0 0 -1.11673,1.08727 1.1168125,1.0873146 0 0 0 1.11673,1.08728 1.1168125,1.0873146 0 0 0 1.11673,-1.08728 1.1168125,1.0873146 0 0 0 -1.11673,-1.08727 z m -28.49697,12.13621 a 1.1168125,1.0873146 0 0 0 -1.11724,1.08727 1.1168125,1.0873146 0 0 0 1.11724,1.08728 1.1168125,1.0873146 0 0 0 1.11673,-1.08728 1.1168125,1.0873146 0 0 0 -1.11673,-1.08727 z m 63.27779,0.009 a 1.1168125,1.0873146 0 0 0 -1.11724,1.08727 1.1168125,1.0873146 0 0 0 1.11724,1.08727 1.1168125,1.0873146 0 0 0 1.11673,-1.08727 1.1168125,1.0873146 0 0 0 -1.11673,-1.08727 z m -34.4072,0.0574 a 1.1168125,1.0873146 0 0 0 -1.11673,1.08728 1.1168125,1.0873146 0 0 0 1.11673,1.08727 1.1168125,1.0873146 0 0 0 1.11673,-1.08727 1.1168125,1.0873146 0 0 0 -1.11673,-1.08728 z m 33.42225,10.09086 a 1.1168125,1.0873146 0 0 0 -1.11673,1.08727 1.1168125,1.0873146 0 0 0 1.11673,1.08727 1.1168125,1.0873146 0 0 0 1.11673,-1.08727 1.1168125,1.0873146 0 0 0 -1.11673,-1.08727 z m 24.54579,1.00563 a 1.1168125,1.0873146 0 0 0 -1.11673,1.08727 1.1168125,1.0873146 0 0 0 1.11673,1.08727 1.1168125,1.0873146 0 0 0 1.11672,-1.08727 1.1168125,1.0873146 0 0 0 -1.11672,-1.08727 z m -79.53623,6.69468 a 1.1168125,1.0873146 0 0 0 -1.11673,1.08727 1.1168125,1.0873146 0 0 0 1.11673,1.08727 1.1168125,1.0873146 0 0 0 1.11673,-1.08727 1.1168125,1.0873146 0 0 0 -1.11673,-1.08727 z m -63.719659,8.5974 a 1.1168125,1.0873146 0 0 0 -1.117245,1.08779 1.1168125,1.0873146 0 0 0 1.117245,1.08727 1.1168125,1.0873146 0 0 0 1.116727,-1.08727 1.1168125,1.0873146 0 0 0 -1.116727,-1.08779 z m 57.333999,10.71459 a 1.1168125,1.0873146 0 0 0 -1.11673,1.08728 1.1168125,1.0873146 0 0 0 1.11673,1.08727 1.1168125,1.0873146 0 0 0 1.11673,-1.08727 1.1168125,1.0873146 0 0 0 -1.11673,-1.08728 z m 45.92175,1.32292 a 1.1168125,1.0873146 0 0 0 -1.11673,1.08727 1.1168125,1.0873146 0 0 0 1.11673,1.08728 1.1168125,1.0873146 0 0 0 1.11672,-1.08728 1.1168125,1.0873146 0 0 0 -1.11672,-1.08727 z m 18.61333,1.19011 a 1.1168125,1.0873146 0 0 0 -1.11673,1.08727 1.1168125,1.0873146 0 0 0 1.11673,1.08727 1.1168125,1.0873146 0 0 0 1.11673,-1.08727 1.1168125,1.0873146 0 0 0 -1.11673,-1.08727 z m -5.57072,2.91042 a 1.1168125,1.0873146 0 0 0 -1.11673,1.08727 1.1168125,1.0873146 0 0 0 1.11673,1.08727 1.1168125,1.0873146 0 0 0 1.11724,-1.08727 1.1168125,1.0873146 0 0 0 -1.11724,-1.08727 z m -88.44682,0.26406 a 1.1168125,1.0873146 0 0 0 -1.11674,1.08779 1.1168125,1.0873146 0 0 0 1.11674,1.08727 1.1168125,1.0873146 0 0 0 1.11725,-1.08727 1.1168125,1.0873146 0 0 0 -1.11725,-1.08779 z m -65.418239,2.34146 a 1.1168125,1.0873146 0 0 0 -1.116727,1.08727 1.1168125,1.0873146 0 0 0 1.116727,1.08728 1.1168125,1.0873146 0 0 0 1.117246,-1.08728 1.1168125,1.0873146 0 0 0 -1.117246,-1.08727 z m 122.888659,2.28823 a 1.1168125,1.0873146 0 0 0 -1.11673,1.08728 1.1168125,1.0873146 0 0 0 1.11673,1.08727 1.1168125,1.0873146 0 0 0 1.11672,-1.08727 1.1168125,1.0873146 0 0 0 -1.11672,-1.08728 z m -142.155182,4.64313 a 1.1168125,1.0873146 0 0 0 -1.116728,1.08728 1.1168125,1.0873146 0 0 0 1.116728,1.08727 1.1168125,1.0873146 0 0 0 1.116727,-1.08727 1.1168125,1.0873146 0 0 0 -1.116727,-1.08728 z m 5.571752,3.32073 a 1.1168125,1.0873146 0 0 0 -1.116727,1.08728 1.1168125,1.0873146 0 0 0 1.116727,1.08727 1.1168125,1.0873146 0 0 0 1.116728,-1.08727 1.1168125,1.0873146 0 0 0 -1.116728,-1.08728 z m 68.210306,3.09801 a 1.1168125,1.0873146 0 0 0 -1.116727,1.08727 1.1168125,1.0873146 0 0 0 1.116727,1.08727 1.1168125,1.0873146 0 0 0 1.116727,-1.08727 1.1168125,1.0873146 0 0 0 -1.116727,-1.08727 z m -76.232039,1.48466 a 1.1168125,1.0873146 0 0 0 -1.116728,1.08727 1.1168125,1.0873146 0 0 0 1.116728,1.08779 1.1168125,1.0873146 0 0 0 1.116728,-1.08779 1.1168125,1.0873146 0 0 0 -1.116728,-1.08727 z m 13.78624,5.79913 a 1.1168125,1.0873146 0 0 0 -1.116728,1.08727 1.1168125,1.0873146 0 0 0 1.116728,1.08727 1.1168125,1.0873146 0 0 0 1.116727,-1.08727 1.1168125,1.0873146 0 0 0 -1.116727,-1.08727 z m 160.052273,6.36033 a 1.1168125,1.0873146 0 0 0 -1.11724,1.08727 1.1168125,1.0873146 0 0 0 1.11724,1.08727 1.1168125,1.0873146 0 0 0 1.11673,-1.08727 1.1168125,1.0873146 0 0 0 -1.11673,-1.08727 z m -22.76863,4.30258 a 1.1168125,1.0873146 0 0 0 -1.11673,1.08728 1.1168125,1.0873146 0 0 0 1.11673,1.08725 1.1168125,1.0873146 0 0 0 1.11673,-1.08725 1.1168125,1.0873146 0 0 0 -1.11673,-1.08728 z m 21.90409,1.77716 a 1.1168125,1.0873146 0 0 0 -1.11725,1.08728 1.1168125,1.0873146 0 0 0 1.11725,1.08725 1.1168125,1.0873146 0 0 0 1.11673,-1.08725 1.1168125,1.0873146 0 0 0 -1.11673,-1.08728 z m 29.5429,1.6216 a 1.1168125,1.0873146 0 0 0 -1.11725,1.08728 1.1168125,1.0873146 0 0 0 1.11725,1.08778 1.1168125,1.0873146 0 0 0 1.11672,-1.08778 1.1168125,1.0873146 0 0 0 -1.11672,-1.08728 z m -114.85297,1.09088 a 1.1168125,1.0873146 0 0 0 -1.11673,1.08728 1.1168125,1.0873146 0 0 0 1.11673,1.08728 1.1168125,1.0873146 0 0 0 1.11674,-1.08728 1.1168125,1.0873146 0 0 0 -1.11674,-1.08728 z m -28.628746,1.77665 a 1.1168125,1.0873146 0 0 0 -1.116729,1.08778 1.1168125,1.0873146 0 0 0 1.116729,1.08728 1.1168125,1.0873146 0 0 0 1.116727,-1.08728 1.1168125,1.0873146 0 0 0 -1.116727,-1.08778 z m -16.331821,0.65474 a 1.1168125,1.0873146 0 0 0 -1.117243,1.08778 1.1168125,1.0873146 0 0 0 1.117243,1.08728 1.1168125,1.0873146 0 0 0 1.116729,-1.08728 1.1168125,1.0873146 0 0 0 -1.116729,-1.08778 z m 102.121967,1.30947 a 1.1168125,1.0873146 0 0 0 -1.11673,1.08728 1.1168125,1.0873146 0 0 0 1.11673,1.08778 1.1168125,1.0873146 0 0 0 1.11672,-1.08778 1.1168125,1.0873146 0 0 0 -1.11672,-1.08728 z m -17.58084,0.56121 a 1.1168125,1.0873146 0 0 0 -1.11673,1.08728 1.1168125,1.0873146 0 0 0 1.11673,1.08778 1.1168125,1.0873146 0 0 0 1.11673,-1.08778 1.1168125,1.0873146 0 0 0 -1.11673,-1.08728 z m -128.82938,1.21567 a 1.1168125,1.0873146 0 0 0 -1.117245,1.08728 1.1168125,1.0873146 0 0 0 1.117245,1.08778 1.1168125,1.0873146 0 0 0 1.116728,-1.08778 1.1168125,1.0873146 0 0 0 -1.116728,-1.08728 z m 84.06102,0.28061 a 1.1168125,1.0873146 0 0 0 -1.116727,1.08726 1.1168125,1.0873146 0 0 0 1.116727,1.08727 1.1168125,1.0873146 0 0 0 1.116727,-1.08727 1.1168125,1.0873146 0 0 0 -1.116727,-1.08726 z m -54.567727,6.92153 a 1.1168125,1.0873146 0 0 0 -1.11673,1.08728 1.1168125,1.0873146 0 0 0 1.11673,1.08728 1.1168125,1.0873146 0 0 0 1.116727,-1.08728 1.1168125,1.0873146 0 0 0 -1.116727,-1.08728 z m 90.113397,1.02889 a 1.1168125,1.0873146 0 0 0 -1.11673,1.08727 1.1168125,1.0873146 0 0 0 1.11673,1.08726 1.1168125,1.0873146 0 0 0 1.11672,-1.08726 1.1168125,1.0873146 0 0 0 -1.11672,-1.08727 z"
         style="opacity:1;fill:#4d4d4d;fill-opacity:1;stroke:#4d4d4d;stroke-width:0.18797547;stroke-miterlimit:4;stroke-dasharray:none"
         inkscape:connector-curvature="0" />
      <path
         d="m 16.685642,244.40254 19.165945,-6.73434 m -13.710049,10.00798 -5.455896,-3.27364 m -2.449785,7.99702 2.449785,-7.99702 m 25.400632,41.60635 -29.550283,-7.20897 14.092885,18.95497 M 14.235857,252.39956 12.535991,278.79992 27.973854,258.1518 m 172.541606,39.60309 16.39983,-9.57917 m -29.86275,-18.03981 0.67932,-5.42326 m 0.30022,-0.0935 18.10926,33.13577 m -29.67578,0.7094 a 1.1168125,1.0873146 0 0 1 -1.11682,1.08731 1.1168125,1.0873146 0 0 1 -1.11681,-1.08731 1.1168125,1.0873146 0 0 1 1.11681,-1.08731 1.1168125,1.0873146 0 0 1 1.11682,1.08731 z M 204.01898,158.689 216.91529,123.75512 m -25.10753,0.21712 25.10753,-0.21712 m 0,0 L 179.9565,87.268063 M 191.80776,123.97224 179.9565,87.268063 m -21.43527,92.788717 33.55825,22.22217 m -95.647866,76.98397 62.633076,-39.68246 m 36.54723,-7.67194 21.99551,44.50602 m -29.87557,-11.70186 7.88006,-32.80416 -3.53244,-29.62957 m -33.01479,37.30151 34.1017,-47.22212 m 23.7489,31.93475 -24.83581,-22.01414 24.83581,-15.36057 m -27.28134,47.7679 27.28134,-31.43798 m 0,-75.37395 -23.7489,64.48399 23.7489,11.20563 m -38.01455,-42.9516 38.01455,-32.73802 -13.46695,31.40989 13.46695,7.71583 m -32.58002,-12.07552 19.68371,3.76445 -45.90534,21.23551 m 26.22163,-24.99996 7.47249,-30.95231 12.21122,34.71676 -11.9395,43.58995 m -0.27172,-78.30671 -32.33549,7.93649 m 24.863,23.01582 -24.863,-23.01582 m -1.35863,48.01578 -30.97687,-32.1428 57.1985,7.14284 z m 35.05275,12.43383 -14.53738,-31.61369 m -19.97192,31.34913 20.24365,-31.48141 m -41.30247,49.60307 20.92296,-30.15866 m -0.40759,-0.13227 -28.12371,11.90473 7.60834,18.3862 m 54.48121,-7.93649 -15.21669,28.17455 -18.74915,-50.52899 m 0.95105,59.65595 -0.4076,-47.48668 34.5093,0.26456 -3.53244,42.32794 m -52.03568,-24.47084 39.26452,20.23806 m -75.10725,4.87642 35.84273,-25.11448 -6.79317,19.4444 m -0.13587,-0.39682 46.87287,1.5873 m -18.47741,8.73014 30.84097,-4.89418 m -12.63528,-4.10051 18.34154,1.32275 21.30337,4.34853 m -51.32916,32.68843 11.68425,-38.35971 9.51043,39.28562 m 0.27173,0.26455 -21.874,-1.32275 12.10883,28.94173 m 5.99538,0 3.76979,-27.61898 29.86275,12.8639 m -84.88742,4.19956 27.03682,-47.61894 -0.13586,37.16923 30.97685,-41.93112 -2.03796,29.49728 29.04757,7.91311 -27.00961,-37.41039 m -2.03796,29.49728 -12.33374,33.43907 m -16.60515,-21.00523 15.83244,21.00523 m -2.38504,0 -40.2125,-10.6878 27.17268,-10.31744 28.39545,-12.037 m -60.52397,33.04224 4.84776,-10.6878 -35.732114,-7.8042 m 8.293874,18.492 36.78503,-20.21157 26.41779,20.21157 m -66.06469,-62.425 28.91369,-6.0669 34.9169,39.68246 -24.18369,8.59787 m -51.220539,-26.98408 51.220539,26.98408 -39.6469,-42.21343 0.38429,38.06771 39.39848,4.27798 -10.86907,-48.41259 m -28.52941,44.13461 -14.084648,24.35729 m -14.352056,-79.63497 16.572057,32.8299 11.864647,22.44778 -28.820983,1.7771 m 0,0 16.908302,-24.31843 11.528391,-15.52638 m -44.588433,40.42771 44.588433,-40.42771 m -44.384296,40.49954 16.331882,-57.70951 -0.384279,57.05479 z m -21.519657,-38.16123 21.31552,38.0894 M 27.973854,258.24533 35.851587,237.6682 M 22.141539,247.67618 35.851587,237.6682 m 21.519657,38.16123 -29.39739,-17.5841 -13.737997,-5.84577 7.905682,-4.72338 m 9.596614,50.07414 -3.764299,-39.59852 m 14.11242,27.85709 -20.583299,-39.28562 m 85.237315,51.03162 -10.036949,-18.492 -17.483915,18.492 m -43.499625,0 21.447306,-21.99729 13.904764,21.99729 m -28.985597,-11.746 23.9158,11.746 m -31.205543,0 7.289743,-11.74599"
         style="fill:none;stroke:#4d4d4d;stroke-width:0.18767992px;stroke-linecap:butt;stroke-linejoin:miter;stroke-opacity:1"
         id="path5665"
         inkscape:connector-curvature="0" />
    </g>
  </g>
</svg>
